<?xml version="1.0" encoding="utf-8"?>
<!-- Generator: Adobe Illustrator 25.2.3, SVG Export Plug-In . SVG Version: 6.00 Build 0)  -->
<svg version="1.1" id="Capa_1" xmlns="http://www.w3.org/2000/svg" xmlns:xlink="http://www.w3.org/1999/xlink" x="0px" y="0px"
	 viewBox="0 0 35.63 35.63" style="enable-background:new 0 0 35.63 35.63;" xml:space="preserve">
<style type="text/css">
	.st0{fill:#cf2c30;}
</style>
<g>
	<g>
		<path class="st0" d="M27.24,6.36c-1.15,0-2.09,0.94-2.09,2.09c0,1.15,0.94,2.09,2.09,2.09c1.15,0,2.09-0.94,2.09-2.09
			C29.33,7.3,28.4,6.36,27.24,6.36z"/>
		<path class="st0" d="M17.96,9.04c-4.84,0-8.77,3.94-8.77,8.77c0,4.84,3.94,8.77,8.77,8.77c4.84,0,8.77-3.94,8.77-8.77
			C26.73,12.98,22.8,9.04,17.96,9.04z M17.96,23.43c-3.1,0-5.62-2.52-5.62-5.62s2.52-5.62,5.62-5.62c3.1,0,5.62,2.52,5.62,5.62
			S21.06,23.43,17.96,23.43z"/>
		<path class="st0" d="M24.92,35.63H10.7c-5.9,0-10.7-4.8-10.7-10.7V10.7C0,4.8,4.8,0,10.7,0h14.22c5.9,0,10.7,4.8,10.7,10.7v14.22
			C35.63,30.83,30.83,35.63,24.92,35.63z M10.7,3.35c-4.05,0-7.35,3.3-7.35,7.35v14.22c0,4.05,3.3,7.35,7.35,7.35h14.22
			c4.05,0,7.35-3.3,7.35-7.35V10.7c0-4.05-3.3-7.35-7.35-7.35H10.7z"/>
	</g>
</g>
</svg>
