<?xml version="1.0" encoding="utf-8"?>
<!-- Generator: Adobe Illustrator 25.2.3, SVG Export Plug-In . SVG Version: 6.00 Build 0)  -->
<svg version="1.1" id="Capa_1" xmlns="http://www.w3.org/2000/svg" xmlns:xlink="http://www.w3.org/1999/xlink" x="0px" y="0px"
	 viewBox="0 0 27.59 35.63" style="enable-background:new 0 0 27.59 35.63;" xml:space="preserve">
<style type="text/css">
	.st0{fill:#ffffff;}
</style>
<path class="st0" d="M11.54,23.24c-0.03,0.1-0.06,0.19-0.08,0.27c-1.31,5.13-1.45,6.27-2.8,8.65c-0.64,1.13-1.36,2.2-2.16,3.23
	c-0.09,0.12-0.17,0.27-0.36,0.23c-0.2-0.04-0.21-0.22-0.23-0.38c-0.22-1.56-0.33-3.12-0.28-4.69c0.07-2.05,0.32-2.75,2.96-13.86
	c0.04-0.17,0-0.31-0.06-0.46c-0.63-1.71-0.76-3.44-0.2-5.19c1.2-3.79,5.49-4.08,6.24-0.95c0.46,1.93-0.76,4.46-1.7,8.2
	c-0.78,3.09,2.85,5.28,5.96,3.03c2.86-2.08,3.97-7.05,3.76-10.58C22.16,3.7,14.45,2.18,9.56,4.44C3.95,7.04,2.67,13.99,5.2,17.17
	c0.32,0.4,0.57,0.65,0.46,1.06c-0.16,0.64-0.31,1.28-0.48,1.91c-0.13,0.47-0.53,0.64-1,0.45c-0.93-0.38-1.71-0.97-2.34-1.76
	c-2.15-2.66-2.77-7.93,0.08-12.39C5.07,1.5,10.93-0.5,16.28,0.11c6.39,0.73,10.43,5.09,11.19,10.05c0.34,2.26,0.1,7.82-3.07,11.76
	c-3.64,4.52-9.55,4.82-12.28,2.05C11.91,23.74,11.74,23.49,11.54,23.24z"/>
</svg>
