<?xml version="1.0" encoding="utf-8"?>
<!-- Generator: Adobe Illustrator 25.2.3, SVG Export Plug-In . SVG Version: 6.00 Build 0)  -->
<svg version="1.1" id="Capa_1" xmlns="http://www.w3.org/2000/svg" xmlns:xlink="http://www.w3.org/1999/xlink" x="0px" y="0px"
	 viewBox="0 0 43.28 35.63" style="enable-background:new 0 0 43.28 35.63;" xml:space="preserve">
<style type="text/css">
	.st0{fill:#ffffff;}
</style>
<path class="st0" d="M43.11,4.27c-1.37,0.62-2.89,1-4.38,1.25c0.7-0.12,1.74-1.39,2.15-1.91c0.63-0.79,1.16-1.68,1.45-2.65
	c0.04-0.08,0.07-0.17-0.01-0.23c-0.1-0.04-0.16-0.02-0.23,0.02c-1.66,0.89-3.37,1.53-5.19,1.99c-0.15,0.04-0.26,0-0.36-0.09
	c-0.15-0.17-0.29-0.33-0.45-0.46c-0.77-0.65-1.59-1.16-2.51-1.54c-1.22-0.5-2.55-0.71-3.86-0.62c-1.27,0.08-2.53,0.44-3.66,1.03
	c-1.13,0.59-2.15,1.42-2.95,2.41c-0.83,1.03-1.45,2.24-1.76,3.53c-0.3,1.24-0.28,2.47-0.09,3.73c0.03,0.21,0.01,0.24-0.18,0.21
	C13.95,9.87,8.04,7.32,3.24,1.85C3.04,1.61,2.92,1.61,2.75,1.87c-2.1,3.15-1.08,8.2,1.54,10.68c0.35,0.33,0.71,0.66,1.1,0.96
	c-0.14,0.03-1.89-0.16-3.44-0.96c-0.21-0.13-0.31-0.06-0.33,0.18c-0.02,0.34,0.01,0.65,0.06,1.02c0.4,3.19,2.61,6.14,5.64,7.29
	c0.36,0.15,0.76,0.28,1.14,0.35c-0.69,0.15-1.4,0.26-3.37,0.1c-0.25-0.05-0.34,0.08-0.25,0.31c1.49,4.05,4.69,5.25,7.09,5.94
	c0.32,0.06,0.64,0.06,0.97,0.13c-0.02,0.03-0.04,0.03-0.06,0.06c-0.8,1.21-3.56,2.12-4.84,2.57c-2.34,0.82-4.88,1.18-7.35,0.94
	c-0.4-0.06-0.48-0.05-0.59,0c-0.11,0.07-0.01,0.16,0.11,0.26c0.5,0.33,1.01,0.62,1.53,0.91c1.57,0.83,3.21,1.49,4.92,1.97
	c8.84,2.44,18.79,0.65,25.42-5.94c5.21-5.18,7.04-12.32,7.04-19.46c0-0.28,0.33-0.43,0.53-0.58c1.36-1.02,2.45-2.24,3.46-3.6
	c0.23-0.31,0.23-0.58,0.23-0.69c0-0.02,0-0.04,0-0.04C43.28,4.16,43.28,4.19,43.11,4.27z"/>
</svg>
