<svg id="Capa_1" enable-background="new 0 0 512 512" height="512" viewBox="0 0 512 512" width="512" fill="#cf2c30" xmlns="http://www.w3.org/2000/svg"><g><path d="m446 35v-5c0-16.569-13.431-30-30-30h-386c-16.569 0-30 13.432-30 30v273c0 16.569 13.431 30 30 30h6v-258c0-22.091 17.909-40 40-40z"/><path d="m482 65h-386c-16.57 0-30 13.43-30 30v49h63v-17c0-8.28 6.72-15 15-15h112c8.28 0 15 6.72 15 15v17h241v-49c0-16.57-13.43-30-30-30z"/><path d="m271 191c0 8.28-6.72 15-15 15h-112c-8.28 0-15-6.72-15-15v-17h-63v194c0 16.57 13.43 30 30 30h164.43c-3.026-18.211-2.43-28.151-2.43-63h-30c-8.28 0-15-6.72-15-15s6.72-15 15-15h30v-9.4c0-24.81 20.19-45 45-45 24.338 0 48.469-8.431 68.2-25.05 16.656-13.886 40.944-13.888 57.61.01 20.6 16.977 44 25.04 68.19 25.04 5.26 0 10.31.91 15 2.58v-79.18h-241zm-107 144h-32c-8.28 0-15-6.72-15-15s6.72-15 15-15h32c8.28 0 15 6.72 15 15s-6.72 15-15 15z"/><path d="m159 142h82v34h-82z"/><path d="m497 280.6c-30.724 0-61.112-10.211-87.4-32-5.56-4.63-13.64-4.63-19.2 0-26.322 21.815-56.708 32-87.4 32-8.29 0-15 6.72-15 15v72.8c0 66.413 44.019 124.78 107.88 143.02 2.725.773 5.513.773 8.24 0 63.85-18.24 107.88-76.61 107.88-143.02v-72.8c0-8.266-6.719-15-15-15zm-24.39 69.61-62 62c-5.824 5.825-15.339 5.882-21.22 0l-32-32c-5.86-5.86-5.86-15.36 0-21.22 5.86-5.85 15.36-5.85 21.22 0l21.39 21.4 51.39-51.4c5.86-5.85 15.36-5.85 21.22 0 5.85 5.86 5.85 15.36 0 21.22z"/></g></svg>